<svg width="396" height="298" viewBox="0 0 396 298" fill="none" xmlns="http://www.w3.org/2000/svg">
<g filter="url(#filter0_b_17_161)">
<path d="M2 17C2 8.71572 8.71573 2 17 2H379C387.284 2 394 8.71573 394 17V281C394 289.284 387.284 296 379 296H17C8.71572 296 2 289.284 2 281V17Z" fill="#283036" fill-opacity="0.6"/>
<path d="M379 1H17C8.16344 1 1 8.16344 1 17V281C1 289.837 8.16344 297 17 297H379C387.837 297 395 289.837 395 281V17C395 8.16344 387.837 1 379 1Z" stroke="url(#paint0_linear_17_161)" stroke-opacity="0.1" stroke-width="2"/>
</g>
<defs>
<filter id="filter0_b_17_161" x="-50" y="-50" width="496" height="398" filterUnits="userSpaceOnUse" color-interpolation-filters="sRGB">
<feFlood flood-opacity="0" result="BackgroundImageFix"/>
<feGaussianBlur in="BackgroundImage" stdDeviation="25"/>
<feComposite in2="SourceAlpha" operator="in" result="effect1_backgroundBlur_17_161"/>
<feBlend mode="normal" in="SourceGraphic" in2="effect1_backgroundBlur_17_161" result="shape"/>
</filter>
<linearGradient id="paint0_linear_17_161" x1="-7.5" y1="-2.5" x2="385" y2="281.5" gradientUnits="userSpaceOnUse">
<stop stop-color="white" stop-opacity="0.8"/>
<stop offset="0.310056" stop-color="white" stop-opacity="0"/>
<stop offset="0.473246" stop-color="white" stop-opacity="0.5"/>
<stop offset="1" stop-color="white" stop-opacity="0"/>
</linearGradient>
</defs>
</svg>
