<svg width="588" height="598" viewBox="0 0 588 598" fill="none" xmlns="http://www.w3.org/2000/svg">
<path opacity="0.4" d="M334.43 285.344C327.204 281.178 322.019 281.093 318.874 285.004C315.644 288.915 314.114 295.546 314.114 304.812V354.969C314.114 364.49 313.264 372.396 311.478 378.687C309.693 385.233 306.718 389.824 302.638 392.544C298.643 395.35 293.202 396.03 286.317 394.755C279.602 393.564 271.186 389.994 261.155 384.213L256.395 381.408V341.877L262.431 345.363C269.656 349.528 274.416 350.038 276.796 347.063C279.347 344.087 280.622 337.967 280.622 328.7V284.494C280.622 272.932 281.727 263.836 284.022 257.205C286.232 250.489 290.737 246.238 297.453 244.368C290.737 234.762 286.232 225.24 284.022 215.974C281.812 206.708 280.707 196.336 280.707 184.775V140.568C280.707 131.302 279.432 123.651 276.881 117.785C274.501 112.004 269.656 106.989 262.516 102.823L256.48 99.3375V59.8069L261.24 62.6123C271.271 68.3931 279.687 74.599 286.402 81.1449C293.287 87.7759 298.728 94.7469 302.723 102.228C306.888 109.709 309.863 117.7 311.563 126.286C313.349 134.618 314.199 143.544 314.199 153.065V203.222C314.199 212.489 315.814 220.99 318.959 228.556C322.189 236.122 327.374 242.073 334.515 246.153L334.43 285.344Z" fill="url(#paint0_linear_26_82)"/>
<path opacity="0.4" d="M152.349 140.058C159.574 144.224 164.759 144.309 167.905 140.398C171.135 136.488 172.665 129.857 172.665 120.591V70.4334C172.665 60.912 173.515 53.0059 175.3 46.715C177.085 40.169 179.975 35.5784 183.971 32.773C188.136 30.0526 193.576 29.3725 200.291 30.5627C207.177 31.8379 215.677 35.4084 225.708 41.2742L230.468 44.0796V83.6102L224.433 80.1247C217.207 75.9591 212.362 75.3641 209.812 78.3395C207.432 81.3999 206.242 87.5208 206.242 96.8721V141.078C206.242 152.555 205.137 161.736 202.842 168.367C200.631 175.083 196.126 179.334 189.411 181.204C196.126 190.811 200.631 200.332 202.842 209.598C205.052 218.865 206.157 229.236 206.157 240.798V285.004C206.157 294.27 207.347 301.836 209.727 307.702C212.277 313.568 217.122 318.669 224.348 322.749L230.383 326.235V365.765L225.623 362.96C215.592 357.179 207.092 350.888 200.206 344.342C193.491 337.796 188.051 330.826 183.885 323.259C179.89 315.863 177 307.872 175.3 299.371C173.515 291.04 172.665 282.114 172.665 272.592V222.435C172.665 213.169 171.05 204.668 167.905 197.101C164.674 189.535 159.489 183.585 152.349 179.504V140.058Z" fill="url(#paint1_linear_26_82)"/>
<path opacity="0.15" d="M358.996 40.9343L538.442 144.564L538.357 574.81L358.911 471.266L358.996 40.9343Z" fill="url(#paint2_linear_26_82)"/>
<path d="M325.249 97.2971L468.058 179.674V219.205L325.249 136.828V97.2971Z" fill="#587298"/>
<path opacity="0.2" d="M382.373 280.329L517.701 358.455V478.067L382.373 399.941V280.329Z" fill="url(#paint3_linear_26_82)"/>
<path opacity="0.15" d="M381.012 188.6L518.38 267.916V281.433L381.012 202.117V188.6Z" fill="white"/>
<path opacity="0.15" d="M381.012 215.804L499.764 284.324V297.841L381.012 229.321V215.804Z" fill="white"/>
<path opacity="0.15" d="M381.012 242.668L481.828 300.816V314.333L381.012 256.185V242.668Z" fill="white"/>
<path opacity="0.2" d="M358.996 40.9343L538.442 144.564V202.202L358.911 98.6576L358.996 40.9343Z" fill="url(#paint4_linear_26_82)"/>
<path opacity="0.2" d="M403.794 96.0221C403.794 104.778 398.693 108.859 392.403 105.203C386.113 101.548 381.012 91.6015 381.012 82.8453C381.012 74.089 386.113 70.0084 392.403 73.6639C398.693 77.3195 403.794 87.3509 403.794 96.0221Z" fill="white"/>
<path opacity="0.15" d="M35.6372 172.703L588 491.499L587.915 922L35.5522 603.205L35.6372 172.703Z" fill="url(#paint5_linear_26_82)"/>
<path d="M-1 278.798L141.723 361.175V400.705L-1 318.414V278.798Z" fill="#EA8C4F"/>
<path opacity="0.15" d="M72.8689 387.444L389.768 570.39V583.907L72.8689 400.961V387.444Z" fill="white"/>
<path opacity="0.15" d="M72.8689 414.648L346.245 572.43V585.947L72.8689 428.165V414.648Z" fill="white"/>
<path opacity="0.15" d="M72.8689 441.596L305.528 575.915V589.432L72.8689 455.113V441.596Z" fill="white"/>
<path opacity="0.2" d="M21.0158 455.029L252.995 588.923V708.535L21.0158 574.556V455.029Z" fill="url(#paint6_linear_26_82)"/>
<path opacity="0.15" d="M44.3922 499.15L228.683 605.5V619.017L44.3922 512.667V499.15Z" fill="white"/>
<path opacity="0.15" d="M44.3922 526.354L191.961 611.536V625.053L44.3922 539.785V526.354Z" fill="white"/>
<path opacity="0.2" d="M35.6368 172.703L587.235 491.159V549.477L35.6368 231.106V172.703Z" fill="url(#paint7_linear_26_82)"/>
<path opacity="0.2" d="M95.7358 236.547C95.7358 245.304 90.6355 249.384 84.3451 245.729C78.0547 242.073 72.9544 232.127 72.9544 223.37C72.9544 214.614 78.0547 210.534 84.3451 214.189C90.6355 217.845 95.7358 227.876 95.7358 236.547Z" fill="white"/>
<defs>
<linearGradient id="paint0_linear_26_82" x1="383.36" y1="47.8759" x2="244.12" y2="289.239" gradientUnits="userSpaceOnUse">
<stop stop-color="#424C57"/>
<stop offset="0.903" stop-color="white" stop-opacity="0"/>
</linearGradient>
<linearGradient id="paint1_linear_26_82" x1="302.984" y1="31.5123" x2="163.727" y2="272.845" gradientUnits="userSpaceOnUse">
<stop stop-color="#414B56"/>
<stop offset="0.903" stop-color="white" stop-opacity="0"/>
</linearGradient>
<linearGradient id="paint2_linear_26_82" x1="541.816" y1="146.519" x2="370.208" y2="443.807" gradientUnits="userSpaceOnUse">
<stop stop-color="white"/>
<stop offset="1" stop-color="white" stop-opacity="0"/>
</linearGradient>
<linearGradient id="paint3_linear_26_82" x1="475.95" y1="334.285" x2="428.254" y2="416.909" gradientUnits="userSpaceOnUse">
<stop stop-color="white"/>
<stop offset="1" stop-color="white" stop-opacity="0"/>
</linearGradient>
<linearGradient id="paint4_linear_26_82" x1="420.521" y1="41.8282" x2="475.243" y2="196.739" gradientUnits="userSpaceOnUse">
<stop stop-color="#424C58"/>
<stop offset="1" stop-color="white" stop-opacity="0"/>
</linearGradient>
<linearGradient id="paint5_linear_26_82" x1="404.97" y1="385.856" x2="314.072" y2="543.362" gradientUnits="userSpaceOnUse">
<stop stop-color="white"/>
<stop offset="1" stop-color="white" stop-opacity="0"/>
</linearGradient>
<linearGradient id="paint6_linear_26_82" x1="162.887" y1="536.882" x2="115.192" y2="619.507" gradientUnits="userSpaceOnUse">
<stop stop-color="#434D58"/>
<stop offset="1" stop-color="white" stop-opacity="0"/>
</linearGradient>
<linearGradient id="paint7_linear_26_82" x1="172.501" y1="125.714" x2="381.973" y2="480.519" gradientUnits="userSpaceOnUse">
<stop stop-color="#546F94"/>
<stop offset="1" stop-color="white" stop-opacity="0"/>
</linearGradient>
</defs>
</svg>
